#N canvas 267 73 950 653 12;
#X obj 406 202 readsf~ 2;
#X obj 451 397 dac~;
#X msg 411 53 open funkydrum.wav;
#X msg 446 109 1;
#X msg 448 146 0;
#X obj 407 317 lop~ 4000;
#X obj 575 314 lop~ 4000;
#X obj 564 65 vsl 19 162 20 20000 0 0 empty empty Cutoff 0 -9 0 12 #c7c6ff #000000 #000000 0 1;
#X obj 88 32 netreceive -u -b 5005;
#X obj 90 69 oscparse;
#X obj 92 286 sel 1 2 3 4 5;
#X obj 91 108 route select;
#X obj 92 149 unpack 0 0;
#X obj 228 152 sel 1 2 3 4 5;
#X connect 0 0 5 0;
#X connect 0 1 6 0;
#X connect 2 0 0 0;
#X connect 3 0 0 0;
#X connect 4 0 0 0;
#X connect 5 0 1 0;
#X connect 6 0 1 1;
#X connect 7 0 5 1;
#X connect 7 0 6 1;
#X connect 8 0 9 0;
#X connect 9 0 11 0;
#X connect 11 0 12 0;
#X connect 12 0 10 0;
#X connect 12 1 13 0;
#X connect 13 0 2 0;
