#N canvas -140 116 1349 600 10;
#X obj 50 50 netreceive -u -b 5005;
#X obj 50 90 oscparse;
#X obj 50 130 route list;
#X obj 50 170 route effect;
#X obj 560 25 adc~;
#X obj 565 189 dac~;
#X obj 159 89 print RAW;
#X obj 163 119 print PARSED;
#X obj 162 161 print after_list;
#X obj 146 198 print after_effect;
#X obj 50 210 unpack f f f;
#X obj 70 453 s filter_value;
#X obj 145 386 s reverb_value;
#X obj 605 28 r filter_value;
#X obj 603 80 r reverb_value;
#X obj 137 248 s effect_value_raw;
#X obj 71 418 r effect_value_raw;
#X obj 146 357 r effect_value_raw;
#X obj 149 325 t b;
#X obj 79 374 t b;
#X obj 559 77 lop~;
#X obj 562 155 *~ 0.8;
#X obj 565 113 rev1~ 3;
#X obj 55 320 route 3 4 5;
#X obj 63 490 r effect_value_raw;
#X obj 229 326 t b;
#X obj 62 519 s speed_value;
#X obj 728 49 delwrite~ \$0-buf 5000;
#X obj 1176 261 r speed_value;
#X obj 1163 394 phasor~;
#X obj 1176 289 - 1;
#X obj 1175 330 * 0.3;
#X obj 1173 362 + 1;
#X obj 1163 419 expr~ 1 - $v1;
#X obj 1162 445 *~ 120;
#X obj 1160 472 +~ 400;
#X obj 290 71 spigot;
#X obj 298 103 s filter_value;
#X obj 288 36 r effect_value_raw;
#X obj 398 64 r current_mode;
#X obj 146 288 s current_mode;
#X obj 289 163 spigot;
#X obj 291 132 r effect_value_raw;
#X obj 401 160 r current_mode;
#X obj 353 72 == 3;
#X obj 288 197 s reverb_value;
#X obj 351 161 == 4;
#X obj 260 309 spigot;
#X obj 293 232 r effect_value_raw;
#X obj 268 265 r current_mode;
#X obj 274 290 == 5;
#X obj 276 338 s speed_value;
#X obj 743 104 adc~;
#X obj 694 167 lop~;
#X obj 699 203 rev1~ 3;
#X obj 756 521 dac~;
#X obj 920 15 r filter_value, f 21;
#X obj 787 165 r reverb_value;
#X obj 898 76 clip 50 8000;
#X obj 787 222 clip 0 1;
#X obj 786 248 sig~ 0.5;
#X obj 896 97 pack f 50;
#X obj 881 118 line;
#X obj 918 51 spigot;
#X obj 1011 32 r current_mode;
#X obj 987 45 == 3;
#X obj 790 193 spigot;
#X obj 889 167 r current_mode;
#X obj 851 198 == 4;
#X obj 696 243 *~ 1;
#X obj 759 420 +~, f 5;
#X obj 995 268 r current_mode;
#X obj 1001 293 == 5;
#X obj 1017 334 sig~;
#X obj 992 144 lop~;
#X obj 997 180 rev1~ 3;
#X obj 1085 142 r reverb_value;
#X obj 1085 199 clip 0 1;
#X obj 1084 225 sig~ 0.5;
#X obj 1088 170 spigot;
#X obj 1187 144 r current_mode;
#X obj 1149 175 == 4;
#X obj 1142 11 r filter_value, f 21;
#X obj 1120 72 clip 50 8000;
#X obj 1118 93 pack f 50;
#X obj 1103 114 line;
#X obj 1140 47 spigot;
#X obj 1254 48 r current_mode;
#X obj 1209 41 == 3;
#X obj 994 220 *~;
#X obj 876 276 vd~ \$0-buf;
#X obj 867 350 *~;
#X connect 0 0 1 0;
#X connect 0 0 6 0;
#X connect 1 0 2 0;
#X connect 1 0 7 0;
#X connect 2 0 3 0;
#X connect 2 0 8 0;
#X connect 3 0 9 0;
#X connect 3 0 10 0;
#X connect 10 1 40 0;
#X connect 10 2 15 0;
#X connect 16 0 11 0;
#X connect 17 0 12 0;
#X connect 24 0 26 0;
#X connect 28 0 30 0;
#X connect 29 0 33 0;
#X connect 30 0 31 0;
#X connect 31 0 32 0;
#X connect 32 0 29 0;
#X connect 33 0 34 0;
#X connect 34 0 35 0;
#X connect 35 0 90 0;
#X connect 36 0 37 0;
#X connect 38 0 36 0;
#X connect 39 0 44 0;
#X connect 41 0 45 0;
#X connect 42 0 41 0;
#X connect 43 0 46 0;
#X connect 44 0 36 1;
#X connect 46 0 41 1;
#X connect 47 0 51 0;
#X connect 48 0 47 0;
#X connect 49 0 50 0;
#X connect 50 0 47 1;
#X connect 52 0 53 0;
#X connect 52 0 27 0;
#X connect 52 0 74 0;
#X connect 53 0 54 0;
#X connect 54 0 69 0;
#X connect 56 0 53 1;
#X connect 56 0 63 0;
#X connect 57 0 66 0;
#X connect 58 0 61 0;
#X connect 59 0 60 0;
#X connect 60 0 69 1;
#X connect 61 0 62 0;
#X connect 63 0 58 0;
#X connect 64 0 65 0;
#X connect 65 0 63 1;
#X connect 66 0 59 0;
#X connect 67 0 68 0;
#X connect 68 0 66 1;
#X connect 69 0 70 0;
#X connect 70 0 55 0;
#X connect 71 0 72 0;
#X connect 72 0 73 0;
#X connect 73 0 91 1;
#X connect 74 0 75 0;
#X connect 75 0 89 0;
#X connect 76 0 79 0;
#X connect 77 0 78 0;
#X connect 78 0 89 1;
#X connect 79 0 77 0;
#X connect 80 0 81 0;
#X connect 81 0 79 1;
#X connect 82 0 86 0;
#X connect 82 0 74 1;
#X connect 83 0 84 0;
#X connect 84 0 85 0;
#X connect 86 0 83 0;
#X connect 87 0 88 0;
#X connect 88 0 86 1;
#X connect 89 0 90 0;
#X connect 90 0 91 0;
#X connect 91 0 70 0;
