#N canvas 283 217 900 650 10;
#X obj 50 50 netreceive -u -b 5005;
#X obj 50 90 oscparse;
#X obj 50 130 route list;
#X obj 50 170 route effect;
#X obj 50 210 unpack f f f;
#X obj 56 343 route 3 4;
#X obj 56 384 s lowpass;
#X obj 206 384 s reverb;
#X text 50 20 <-- OSC INPUT FROM PYTHON;
#X obj 447 121 r lowpass;
#X obj 352 168 adc~;
#X obj 353 278 *~ 1;
#X obj 354 324 dac~;
#X obj 56 261 t f f;
#X obj 53 304 pack f f;
#X obj 426 189 r rev;
#X obj 353 200 lop~;
#X obj 353 234 rev1~;
#X obj 447 155 * 20000;
#X obj 426 224 * 1;
#X connect 0 0 1 0;
#X connect 1 0 2 0;
#X connect 2 0 3 0;
#X connect 3 0 4 0;
#X connect 4 0 13 0;
#X connect 4 1 13 0;
#X connect 5 0 6 0;
#X connect 5 1 7 0;
#X connect 9 0 18 0;
#X connect 10 0 16 0;
#X connect 11 0 12 0;
#X connect 13 0 14 0;
#X connect 13 1 14 1;
#X connect 14 0 5 0;
#X connect 15 0 19 0;
#X connect 16 0 17 0;
#X connect 17 0 11 0;
#X connect 18 0 16 1;
#X connect 19 0 17 2;
