#N canvas 178 183 800 600 10;
#X obj 50 50 netreceive -u -b 5005;
#X obj 50 90 oscparse;
#X obj 50 130 route list;
#X obj 50 170 route effect;
#X obj 50 250 route 3 4;
#X obj 348 86 * 20000;
#X obj 450 110 * 1;
#X obj 296 73 adc~;
#X obj 287 160 dac~;
#X obj 518 318 adc~;
#X obj 518 339 *~ 1;
#X obj 518 360 dac~;
#X obj 348 116 lop~;
#X obj 450 140 rev1~;
#X obj 159 89 print RAW;
#X obj 163 119 print PARSED;
#X obj 162 161 print after_list;
#X obj 146 198 print after_effect;
#X obj 50 210 unpack f f f;
#X obj 145 232 s effect_value;
#X obj 348 56 r effect_value;
#X obj 450 80 r effect_value;
#X obj 410 321 rev1~;
#X connect 0 0 1 0;
#X connect 0 0 14 0;
#X connect 1 0 2 0;
#X connect 1 0 15 0;
#X connect 2 0 3 0;
#X connect 2 0 16 0;
#X connect 3 0 17 0;
#X connect 3 0 18 0;
#X connect 5 0 12 1;
#X connect 6 0 13 0;
#X connect 7 0 8 0;
#X connect 7 1 12 0;
#X connect 18 1 4 0;
#X connect 18 2 19 0;
#X connect 20 0 5 0;
#X connect 21 0 6 0;
