#N canvas 176 171 800 600 10;
#X obj 50 50 netreceive -u -b 5005;
#X obj 50 90 oscparse;
#X obj 50 130 route list;
#X obj 50 170 route effect;
#X obj 296 73 adc~;
#X obj 304 246 dac~;
#X obj 614 243 adc~;
#X obj 612 323 dac~;
#X obj 159 89 print RAW;
#X obj 163 119 print PARSED;
#X obj 162 161 print after_list;
#X obj 146 198 print after_effect;
#X obj 50 210 unpack f f f;
#X obj 659 69 vsl 16 136 0 1 0 0 empty empty cutoff 0 -9 0 10 #fcfcfc #000000 #000000 0 1;
#X obj 71 415 s filter_value;
#X obj 234 413 s reverb_value;
#X obj 348 56 r filter_value;
#X obj 398 105 r reverb_value;
#X obj 56 282 route 3 4;
#X obj 137 248 s effect_value_raw;
#X obj 72 380 r effect_value_raw;
#X obj 235 384 r effect_value_raw;
#X obj 223 336 t b;
#X obj 80 336 t b;
#X obj 613 282 rev1~;
#X obj 324 120 lop~;
#X obj 331 177 rev1~ 0.6;
#X connect 0 0 1 0;
#X connect 0 0 8 0;
#X connect 1 0 2 0;
#X connect 1 0 9 0;
#X connect 2 0 3 0;
#X connect 2 0 10 0;
#X connect 3 0 11 0;
#X connect 3 0 12 0;
#X connect 4 0 25 0;
#X connect 12 1 18 0;
#X connect 12 2 19 0;
#X connect 16 0 25 1;
#X connect 17 0 26 1;
#X connect 18 1 23 0;
#X connect 18 2 22 0;
#X connect 20 0 14 0;
#X connect 21 0 15 0;
#X connect 25 0 26 0;
#X connect 26 0 5 0;
