#N canvas 952 0 958 956 10;
#X obj 50 80 oscparse;
#X obj 51 203 unpack f f;
#X text 50 10 RECEIVING OSC: /select instrument track;
#X obj 50 260 s instrument_id;
#X obj 150 260 s track_id;
#X obj 487 41 r instrument_id;
#X obj 373 121 r track_id;
#X obj 496 196 s inst1_selected;
#X obj 384 440 tabplay~ inst1buf;
#X obj 382 356 soundfiler;
#X obj 386 474 dac~;
#X array inst2buf 3.168e+06 float 2;
#X array inst3buf 441000 float 2;
#X obj 47 51 netreceive -u -b 5005;
#X obj 496 87 sel 1;
#X obj 375 164 spigot;
#X obj 380 214 sel 1 2 3 4;
#X obj 561 329 soundfiler;
#X obj 572 432 dac~;
#N canvas 0 50 450 250 (subpatch) 0;
#X array inst1buf 3.168e+06 float 2;
#X coords 0 1 3.168e+06 -1 200 140 1;
#X restore 43 308 graph;
#X obj 567 387 tabplay~ inst1buf;
#X msg 382 304 read -resize samples/instr1_bass1.wav inst1buf;
#X obj 386 385 bng 16 250 50 0 empty empty empty 0 -8 0 10 #fcfcfc #000000 #000000;
#X obj 206 71 print RECEIVE;
#X obj 54 121 list trim;
#X obj 252 157 print TRACK;
#X obj 238 243 print trigger track;
#X msg 320 346 stop;
#X obj 262 194 print AFTER_SPIGOT;
#X obj 105 753 soundfiler;
#X obj 111 843 dac~;
#X obj 132 566 spigot;
#X obj 137 616 sel 1 2 3 4;
#X obj 109 782 bng 16 250 50 0 empty empty empty 0 -8 0 10 #fcfcfc #000000 #000000;
#X obj 212 473 r instrument_id;
#X msg 228 568 1;
#X msg 497 136 1;
#X obj 221 519 sel 2;
#X obj 303 791 soundfiler;
#X obj 309 881 dac~;
#X obj 307 820 bng 16 250 50 0 empty empty empty 0 -8 0 10 #fcfcfc #000000 #000000;
#X obj 559 778 soundfiler;
#X obj 565 868 dac~;
#X obj 565 806 bng 16 250 50 0 empty empty empty 0 -8 0 10 #fcfcfc #000000 #000000;
#X obj 568 364 bng 16 250 50 0 empty empty empty 0 -8 0 10 #fcfcfc #000000 #000000;
#X obj 221 628 s inst2_selected;
#X obj 19 545 print TRACK;
#X obj 14 640 print trigger track;
#X obj 16 606 print AFTER_SPIGOT;
#X msg 105 701 read -resize samples/instr2_drum1.wav inst2buf;
#X msg 518 696 read -resize samples/instr2_drum3.wav inst2buf;
#X msg 303 739 read -resize samples/instr2_drum2.wav inst2buf;
#X obj 563 834 tabplay~ inst2buf;
#X obj 307 847 tabplay~ inst2buf;
#X obj 109 809 tabplay~ inst2buf;
#X obj 128 511 r track_id;
#X obj 313 594 print MODULE2_GATE;
#X obj 602 166 print MODULE1_GATE;
#X obj 311 509 print INST2_GATE;
#X obj 586 77 print INST1_GATE;
#X msg 562 655 read -resize samples/instr2_drum4.wav inst2buf;
#X obj 750 349 soundfiler;
#X obj 761 452 dac~;
#X obj 756 407 tabplay~ inst1buf;
#X obj 757 384 bng 16 250 50 0 empty empty empty 0 -8 0 10 #fcfcfc #000000 #000000;
#X obj 51 163 route select reset;
#X obj 276 279 r reset_all;
#X obj 156 211 s reset_all;
#X msg 438 278 read -resize samples/instr1_bass2.wav inst1buf;
#X msg 713 311 read -resize samples/instr1_bass3.wav inst1buf;
#X obj 178 176 bng 16 250 50 0 empty empty empty 0 -8 0 10 #fcfcfc #000000 #000000;
#X obj 277 373 delay 1;
#X obj 275 317 t b b;
#X obj 256 399 r inst1_play_enable;
#X obj 279 432 spigot;
#X msg 527 429 stop;
#X obj 483 362 r reset_all;
#X obj 484 456 delay 1;
#X obj 482 400 t b b;
#X obj 463 482 r inst1_play_enable;
#X obj 486 515 spigot;
#X msg 852 799 stop;
#X obj 808 732 r reset_all;
#X obj 809 826 delay 1;
#X obj 807 770 t b b;
#X obj 788 852 r inst1_play_enable;
#X obj 811 885 spigot;
#X msg 56 777 stop;
#X obj 12 710 r reset_all;
#X obj 13 804 delay 1;
#X obj 11 748 t b b;
#X obj -8 830 r inst1_play_enable;
#X obj 15 863 spigot;
#X msg 259 812 stop;
#X obj 215 745 r reset_all;
#X obj 216 839 delay 1;
#X obj 214 783 t b b;
#X obj 195 865 r inst1_play_enable;
#X obj 218 898 spigot;
#X msg 504 829 stop;
#X obj 460 762 r reset_all;
#X obj 461 856 delay 1;
#X obj 459 800 t b b;
#X obj 440 882 r inst1_play_enable;
#X obj 463 915 spigot;
#X obj 690 765 soundfiler;
#X obj 696 855 dac~;
#X obj 696 793 bng 16 250 50 0 empty empty empty 0 -8 0 10 #fcfcfc #000000 #000000;
#X obj 694 821 tabplay~ inst2buf;
#X msg 689 495 stop;
#X obj 645 428 r reset_all;
#X obj 646 522 delay 1;
#X obj 644 466 t b b;
#X obj 625 548 r inst1_play_enable;
#X obj 648 581 spigot;
#X connect 0 0 24 0;
#X connect 1 0 3 0;
#X connect 1 1 4 0;
#X connect 5 0 14 0;
#X connect 5 0 15 1;
#X connect 5 0 59 0;
#X connect 6 0 15 0;
#X connect 6 0 25 0;
#X connect 8 0 10 0;
#X connect 9 0 22 0;
#X connect 13 0 0 0;
#X connect 13 0 23 0;
#X connect 14 0 36 0;
#X connect 15 0 16 0;
#X connect 15 0 28 0;
#X connect 16 0 21 0;
#X connect 16 0 26 0;
#X connect 16 1 68 0;
#X connect 16 2 69 0;
#X connect 17 0 44 0;
#X connect 20 0 18 0;
#X connect 21 0 9 0;
#X connect 22 0 8 0;
#X connect 24 0 65 0;
#X connect 29 0 33 0;
#X connect 31 0 32 0;
#X connect 31 0 48 0;
#X connect 32 0 49 0;
#X connect 32 0 47 0;
#X connect 32 1 51 0;
#X connect 32 2 50 0;
#X connect 32 3 60 0;
#X connect 33 0 54 0;
#X connect 34 0 31 1;
#X connect 34 0 37 0;
#X connect 34 0 58 0;
#X connect 35 0 45 0;
#X connect 35 0 56 0;
#X connect 36 0 7 0;
#X connect 36 0 57 0;
#X connect 37 0 35 0;
#X connect 38 0 40 0;
#X connect 40 0 53 0;
#X connect 41 0 43 0;
#X connect 43 0 52 0;
#X connect 44 0 20 0;
#X connect 49 0 29 0;
#X connect 50 0 41 0;
#X connect 51 0 38 0;
#X connect 52 0 42 0;
#X connect 53 0 39 0;
#X connect 54 0 30 0;
#X connect 55 0 31 0;
#X connect 55 0 46 0;
#X connect 60 0 105 0;
#X connect 61 0 64 0;
#X connect 63 0 62 0;
#X connect 64 0 63 0;
#X connect 65 0 1 0;
#X connect 65 2 70 0;
#X connect 66 0 72 0;
#X connect 68 0 17 0;
#X connect 69 0 61 0;
#X connect 70 0 67 0;
#X connect 71 0 74 0;
#X connect 72 0 71 0;
#X connect 72 1 27 0;
#X connect 73 0 74 0;
#X connect 74 0 8 0;
#X connect 76 0 78 0;
#X connect 77 0 80 0;
#X connect 78 0 77 0;
#X connect 78 1 75 0;
#X connect 79 0 80 0;
#X connect 80 0 20 0;
#X connect 82 0 84 0;
#X connect 83 0 86 0;
#X connect 84 0 83 0;
#X connect 84 1 81 0;
#X connect 85 0 86 0;
#X connect 86 0 108 0;
#X connect 88 0 90 0;
#X connect 89 0 92 0;
#X connect 90 0 89 0;
#X connect 90 1 87 0;
#X connect 91 0 92 0;
#X connect 92 0 54 0;
#X connect 94 0 96 0;
#X connect 95 0 98 0;
#X connect 96 0 95 0;
#X connect 96 1 93 0;
#X connect 97 0 98 0;
#X connect 98 0 53 0;
#X connect 100 0 102 0;
#X connect 101 0 104 0;
#X connect 102 0 101 0;
#X connect 102 1 99 0;
#X connect 103 0 104 0;
#X connect 104 0 52 0;
#X connect 105 0 107 0;
#X connect 107 0 108 0;
#X connect 108 0 106 0;
#X connect 110 0 112 0;
#X connect 111 0 114 0;
#X connect 112 0 111 0;
#X connect 112 1 109 0;
#X connect 113 0 114 0;
#X connect 114 0 63 0;
