#N canvas 952 0 958 956 10;
#X obj 50 80 oscparse;
#X obj 51 163 route select;
#X obj 51 203 unpack f f;
#X text 50 10 RECEIVING OSC: /select instrument track;
#X obj 50 260 s instrument_id;
#X obj 150 260 s track_id;
#X obj 487 41 r instrument_id;
#X obj 373 121 r track_id;
#X obj 496 196 s inst1_selected;
#X obj 95 583 s inst2_selected;
#X obj 93 605 s inst3_selected;
#X obj 389 533 s track1;
#X obj 468 533 s track2;
#X obj 548 532 s track3;
#X obj 621 533 s track4;
#X obj 699 535 s track5;
#X obj 397 572 r track1;
#X obj 477 572 r track2;
#X obj 557 572 r track3;
#X obj 637 572 r track4;
#X obj 717 572 r track5;
#X text 209 548 INSTRUMENT 1: Jazz loops;
#X obj 407 620 f 1;
#X obj 487 620 f 2;
#X obj 567 620 f 3;
#X obj 647 620 f 4;
#X obj 727 620 f 5;
#X obj 87 725 pack f f;
#X obj 87 805 soundfiler;
#X obj 386 412 tabplay~ inst1buf;
#X obj 87 865 dac~;
#X text 212 575 INSTRUMENT 2: Piano loops;
#X msg 288 761 symbol samples/inst2_track\$1.wav;
#X obj 187 805 soundfiler;
#X obj 187 835 tabplay~ inst2buf;
#X obj 187 865 dac~;
#X text 211 607 INSTRUMENT 3: Synth loops;
#X msg 530 756 symbol samples/inst3_track\$1.wav;
#X obj 382 356 soundfiler;
#X obj 461 844 tabplay~ inst3buf;
#X obj 388 446 dac~;
#X array inst2buf 441000 float 2;
#X array inst3buf 441000 float 2;
#X obj 47 51 netreceive -u -b 5005;
#X obj 496 87 sel 1;
#X msg 497 136 1(;
#X obj 375 164 spigot;
#X obj 380 214 sel 1 2 3 4;
#X obj 296 303 print;
#X msg 726 151 symbol samples/inst1_bass1.wav;
#X obj 590 325 soundfiler;
#X obj 596 415 dac~;
#X msg 590 272 symbol samples/inst1_bass2.wav;
#N canvas 0 50 450 250 (subpatch) 0;
#X array inst1buf 3.168e+06 float 2;
#X coords 0 1 3.168e+06 -1 200 140 1;
#X restore 63 355 graph;
#X obj 591 370 tabplay~ inst1buf;
#X msg 382 304 read -resize samples/instr1_bass1.wav inst1buf;
#X obj 386 385 bng 16 250 50 0 empty empty empty 0 -8 0 10 #fcfcfc #000000 #000000;
#X obj 206 71 print RECEIVE;
#X obj 54 121 list trim;
#X obj 586 77 print INST;
#X obj 252 157 print TRACK;
#X obj 238 243 print trigger track;
#X msg 316 360 stop;
#X connect 0 0 58 0;
#X connect 1 0 2 0;
#X connect 2 0 4 0;
#X connect 2 1 5 0;
#X connect 6 0 44 0;
#X connect 6 0 46 1;
#X connect 6 0 59 0;
#X connect 7 0 46 0;
#X connect 7 0 60 0;
#X connect 29 0 40 0;
#X connect 38 0 56 0;
#X connect 43 0 0 0;
#X connect 43 0 57 0;
#X connect 44 0 45 0;
#X connect 45 0 8 0;
#X connect 46 0 47 0;
#X connect 47 0 55 0;
#X connect 47 0 61 0;
#X connect 50 0 54 0;
#X connect 52 0 50 0;
#X connect 54 0 51 0;
#X connect 55 0 38 0;
#X connect 56 0 29 0;
#X connect 58 0 1 0;
#X connect 62 0 29 0;
